<svg width="54" height="44" viewBox="0 0 54 44" fill="none" xmlns="http://www.w3.org/2000/svg">
<path d="M3.08312 13.2C2.93379 12.752 2.76312 12.4107 2.57113 12.176C2.37912 11.92 2.14446 11.7387 1.86712 11.632C1.58979 11.5253 1.22712 11.472 0.779125 11.472H0.363125V11.152H9.16313V11.472H8.39513C7.71246 11.472 7.21113 11.568 6.89113 11.76C6.57113 11.9307 6.41113 12.24 6.41113 12.688C6.41113 12.816 6.42179 12.9653 6.44313 13.136C6.46446 13.2853 6.49646 13.4453 6.53912 13.616C6.60313 13.7867 6.66713 13.9787 6.73113 14.192L10.6991 25.616C10.8911 26.1493 11.0618 26.6613 11.2111 27.152C11.3818 27.6427 11.5418 28.1227 11.6911 28.592C11.8405 29.0613 11.9685 29.5093 12.0751 29.936C12.2031 30.3627 12.3205 30.7787 12.4271 31.184C12.5978 30.6293 12.7791 30.0427 12.9711 29.424C13.1631 28.784 13.3658 28.144 13.5791 27.504C13.7925 26.8427 13.9951 26.2133 14.1871 25.616L17.8351 14.448C17.9205 14.2133 17.9845 14.0107 18.0271 13.84C18.0698 13.648 18.1018 13.4667 18.1231 13.296C18.1658 13.1253 18.1871 12.976 18.1871 12.848C18.1871 12.336 18.0165 11.984 17.6751 11.792C17.3338 11.5787 16.7898 11.472 16.0431 11.472H14.1551V11.152H21.9631V11.472H20.8111C20.4058 11.472 20.0645 11.5467 19.7871 11.696C19.5098 11.8453 19.2645 12.1013 19.0511 12.464C18.8378 12.8267 18.6245 13.3173 18.4111 13.936L11.7871 34H10.4111L3.08312 13.2ZM21.0439 34.32C18.7825 34.32 16.9052 33.8293 15.4119 32.848C13.9185 31.8667 12.7985 30.4907 12.0519 28.72C11.3265 26.9493 10.9639 24.88 10.9639 22.512C10.9639 20.144 11.3265 18.0853 12.0519 16.336C12.7985 14.5867 13.9185 13.232 15.4119 12.272C16.9265 11.2907 18.8145 10.8 21.0759 10.8C23.2305 10.8 25.0439 11.2907 26.5159 12.272C28.0092 13.232 29.1399 14.5973 29.9079 16.368C30.6972 18.1173 31.0919 20.176 31.0919 22.544C31.0919 24.912 30.6972 26.9813 29.9079 28.752C29.1399 30.5013 28.0092 31.8667 26.5159 32.848C25.0225 33.8293 23.1985 34.32 21.0439 34.32ZM21.0439 34C22.1745 34 23.1452 33.7867 23.9559 33.36C24.7879 32.912 25.4599 32.2293 25.9719 31.312C26.5052 30.3733 26.8999 29.1787 27.1559 27.728C27.4119 26.2773 27.5399 24.5493 27.5399 22.544C27.5399 20.5387 27.4119 18.8213 27.1559 17.392C26.8999 15.9413 26.5052 14.7573 25.9719 13.84C25.4599 12.9013 24.7985 12.2187 23.9879 11.792C23.1772 11.344 22.2065 11.12 21.0759 11.12C19.9239 11.12 18.9319 11.344 18.0999 11.792C17.2892 12.2187 16.6172 12.9013 16.0839 13.84C15.5505 14.7573 15.1559 15.9413 14.8999 17.392C14.6439 18.8213 14.5159 20.5387 14.5159 22.544C14.5159 24.5493 14.6439 26.2773 14.8999 27.728C15.1559 29.1787 15.5399 30.3733 16.0519 31.312C16.5852 32.2293 17.2572 32.912 18.0679 33.36C18.8999 33.7867 19.8919 34 21.0439 34ZM23.1129 13.168C22.9849 12.7413 22.8249 12.4107 22.6329 12.176C22.4622 11.92 22.2275 11.7387 21.9289 11.632C21.6515 11.5253 21.2889 11.472 20.8409 11.472H20.4249V11.152H29.2249V11.472H28.4889C27.8275 11.472 27.3369 11.568 27.0169 11.76C26.7182 11.952 26.5689 12.2827 26.5689 12.752C26.5689 12.88 26.5795 13.0187 26.6009 13.168C26.6222 13.3173 26.6542 13.4773 26.6969 13.648C26.7395 13.8187 26.7822 14 26.8249 14.192L30.2489 25.456C30.4409 26.096 30.6222 26.7467 30.7929 27.408C30.9635 28.048 31.1235 28.7093 31.2729 29.392C31.4222 30.0533 31.5609 30.736 31.6889 31.44C31.8169 30.8213 31.9875 30.0747 32.2009 29.2C32.4355 28.304 32.6809 27.344 32.9369 26.32L36.7449 11.376H38.0889L42.7609 25.232C43.0595 26.1067 43.3262 26.96 43.5609 27.792C43.8169 28.6027 44.0409 29.36 44.2329 30.064C44.4249 30.7467 44.5742 31.3333 44.6809 31.824C44.8089 31.3333 44.9049 30.9493 44.9689 30.672C45.0542 30.3733 45.1395 30.0427 45.2249 29.68C45.3315 29.3173 45.4702 28.8053 45.6409 28.144L49.1929 14.704C49.2995 14.3413 49.3742 14.0213 49.4169 13.744C49.4595 13.4667 49.4809 13.2213 49.4809 13.008C49.4809 12.432 49.2995 12.0373 48.9369 11.824C48.5955 11.5893 48.0515 11.472 47.3049 11.472H46.5689V11.152H52.7769V11.472H52.1689C51.7209 11.472 51.3475 11.5467 51.0489 11.696C50.7502 11.8453 50.4942 12.1013 50.2809 12.464C50.0889 12.8267 49.9075 13.328 49.7369 13.968L44.4249 34H42.5049L36.1689 14.896L31.4329 34H29.4489L23.1129 13.168Z" fill="#CEB2A9" fill-opacity="0.82"/>
<path d="M3.79962 13.104C3.65029 12.656 3.49029 12.3147 3.31962 12.08C3.17029 11.8453 2.95696 11.6853 2.67962 11.6C2.42362 11.5147 2.06096 11.472 1.59162 11.472H1.17562V11.152H9.11163V11.472H7.92763C7.20229 11.472 6.70096 11.5573 6.42362 11.728C6.16763 11.8987 6.03963 12.1653 6.03963 12.528C6.03963 12.72 6.07163 12.9547 6.13562 13.232C6.19963 13.5093 6.27429 13.7867 6.35962 14.064C6.46629 14.3413 6.55163 14.5867 6.61562 14.8L10.4876 25.872C10.701 26.4907 10.893 27.0667 11.0636 27.6C11.2343 28.1333 11.3943 28.656 11.5436 29.168C11.7143 29.6587 11.8636 30.128 11.9916 30.576C12.141 31.0027 12.2796 31.44 12.4076 31.888C12.5996 31.2907 12.7916 30.6827 12.9836 30.064C13.1756 29.424 13.389 28.7627 13.6236 28.08C13.8583 27.3973 14.1036 26.6613 14.3596 25.872L18.0076 14.928C18.0716 14.7147 18.1463 14.4693 18.2316 14.192C18.317 13.8933 18.3916 13.6053 18.4556 13.328C18.541 13.0293 18.5836 12.7947 18.5836 12.624C18.5836 12.2187 18.445 11.9307 18.1676 11.76C17.9116 11.568 17.3996 11.472 16.6316 11.472H14.9356V11.152H22.0716V11.472H21.1116C20.6636 11.472 20.3116 11.5253 20.0556 11.632C19.7996 11.7387 19.5863 11.9413 19.4156 12.24C19.245 12.5387 19.0636 12.9653 18.8716 13.52L12.0236 34H11.1276L3.79962 13.104ZM21.0029 34.32C18.8482 34.32 17.0562 33.84 15.6269 32.88C14.1975 31.92 13.1309 30.5653 12.4269 28.816C11.7229 27.0453 11.3709 24.944 11.3709 22.512C11.3709 20.08 11.7229 18 12.4269 16.272C13.1522 14.5227 14.2295 13.1787 15.6589 12.24C17.1095 11.28 18.9015 10.8 21.0349 10.8C23.2109 10.8 25.0029 11.28 26.4109 12.24C27.8189 13.1787 28.8749 14.5333 29.5789 16.304C30.2829 18.0533 30.6349 20.1333 30.6349 22.544C30.6349 24.912 30.2722 26.9813 29.5469 28.752C28.8429 30.5013 27.7762 31.8667 26.3469 32.848C24.9389 33.8293 23.1575 34.32 21.0029 34.32ZM21.0029 34C22.2829 34 23.3815 33.7653 24.2989 33.296C25.2162 32.8267 25.9629 32.1227 26.5389 31.184C27.1362 30.224 27.5735 29.0293 27.8509 27.6C28.1282 26.1493 28.2669 24.464 28.2669 22.544C28.2669 20.624 28.1282 18.9493 27.8509 17.52C27.5949 16.0907 27.1789 14.9067 26.6029 13.968C26.0269 13.008 25.2802 12.2933 24.3629 11.824C23.4455 11.3547 22.3362 11.12 21.0349 11.12C19.7975 11.12 18.7202 11.3547 17.8029 11.824C16.8855 12.2933 16.1175 13.008 15.4989 13.968C14.9015 14.9067 14.4535 16.0907 14.1549 17.52C13.8562 18.9493 13.7069 20.624 13.7069 22.544C13.7069 24.464 13.8562 26.1493 14.1549 27.6C14.4535 29.0293 14.9015 30.224 15.4989 31.184C16.0962 32.1227 16.8535 32.8267 17.7709 33.296C18.6882 33.7653 19.7655 34 21.0029 34ZM22.8354 13.104C22.7074 12.656 22.558 12.3147 22.3874 12.08C22.238 11.8453 22.0247 11.6853 21.7474 11.6C21.4914 11.5147 21.1287 11.472 20.6594 11.472H20.1474V11.152H28.0194V11.472H26.9954C26.27 11.472 25.7794 11.5573 25.5234 11.728C25.2674 11.8987 25.1394 12.1867 25.1394 12.592C25.1394 12.72 25.15 12.8693 25.1714 13.04C25.214 13.2107 25.2674 13.4133 25.3314 13.648C25.3954 13.8613 25.47 14.1067 25.5554 14.384L29.2674 26.576C29.4807 27.2373 29.662 27.856 29.8114 28.432C29.9607 29.008 30.0994 29.584 30.2274 30.16C30.3767 30.7147 30.5154 31.3227 30.6434 31.984C30.814 31.2587 30.9954 30.5013 31.1874 29.712C31.4007 28.9013 31.6247 28.016 31.8594 27.056L35.9234 11.28H36.8514L41.3634 26.192C41.6194 26.9813 41.8434 27.7387 42.0354 28.464C42.2487 29.168 42.4407 29.8293 42.6114 30.448C42.782 31.0453 42.9207 31.5893 43.0274 32.08C43.134 31.632 43.2407 31.216 43.3474 30.832C43.4754 30.4267 43.6034 29.9893 43.7314 29.52C43.8807 29.0293 44.0407 28.464 44.2114 27.824L47.9554 14.672C48.0834 14.2027 48.1794 13.8187 48.2434 13.52C48.3074 13.2 48.3394 12.9333 48.3394 12.72C48.3394 12.272 48.2007 11.952 47.9234 11.76C47.646 11.568 47.1234 11.472 46.3554 11.472H45.3954V11.152H51.5714V11.472H50.8994C50.43 11.472 50.0567 11.5253 49.7794 11.632C49.502 11.7387 49.278 11.9413 49.1074 12.24C48.9367 12.5387 48.7767 12.976 48.6274 13.552L42.8034 34H41.5874L35.6034 13.84L30.5154 34H29.2354L22.8354 13.104Z" fill="#59423A" fill-opacity="0.44"/>
</svg>
